# xmcd
#
# Track frame offsets:
#	150
#	24585
#	40702
#	63101
#	83449
#	98887
#	130109
#	149699
#	163460
#
# Disc length: 2613 seconds
# Revision: 2
# Processed by: cddbd v1.5.2PL0 Copyright (c) Steve Scherf et al.
# Submitted via: dBpowerAMP V12.0
#
DISCID=720a3309
DTITLE=Roger Rogers Band, The - The Roger Rogers Band
DYEAR=1998
DGENRE=Blues
TTITLE0=Shake For Me
TTITLE1=It's Alright
TTITLE2=Killing Me Being Free
TTITLE3=Back Door Man
TTITLE4=Everything Gonna Be Alright
TTITLE5=As The Years Go Passing By
TTITLE6=I Don't Need No Doctor
TTITLE7=Tore Down
TTITLE8=You Shook Me
EXTD=
EXTT0=
EXTT1=
EXTT2=
EXTT3=
EXTT4=
EXTT5=
EXTT6=
EXTT7=
EXTT8=
PLAYORDER=
